<svg width="128" height="128" viewBox="0 0 128 128" fill="none" xmlns="http://www.w3.org/2000/svg">
<path d="M89.0316 3.74961C88.4916 2.10882 86.9594 1 85.2321 1H46.4243C44.7336 1 43.2255 2.06291 42.6571 3.65514L1.15216 119.917C0.579829 121.52 1.09153 123.301 2.55641 124.169C8.12737 127.466 22.9702 133.902 40.7203 122.594C62.516 108.709 50.2435 78.2264 54.2104 49.2527C54.4725 47.339 56.1386 45.9593 58.0702 45.9593H59.1876H64.7528H66.9789H73.6572H74.5982C76.6069 45.9593 78.304 47.4395 78.5514 49.4329C82.3265 79.844 86.1929 129.364 88.1267 122.594C89.6041 117.423 110.567 119.855 121.566 121.506C124.567 121.957 127.048 119.08 126.105 116.195L123.188 107.267L118.179 91.9403L109.831 66.9518L89.0316 3.74961Z" fill="#D68362" stroke="#BDB1B1" stroke-opacity="0.4" stroke-width="0.8"/>
</svg>
